<svg version="1.1" xmlns="http://www.w3.org/2000/svg" xmlns:xlink="http://www.w3.org/1999/xlink" width="350" height="759" viewBox="0 0 350 759"><defs/><g transform="matrix(1,0,0,1,0,0)"><g><g><g><path fill="none" stroke="#d3d3d3" paint-order="fill stroke markers" d=" M 0 0 L 1200 0" stroke-miterlimit="10" stroke-opacity="0.8" stroke-dasharray="5"/></g><g><path fill="none" stroke="#d3d3d3" paint-order="fill stroke markers" d=" M 0 0 L 0 800" stroke-miterlimit="10" stroke-opacity="0.8" stroke-dasharray="5"/></g></g><g id="_84AE4D0B-B15A-490A-AEB2-BA08AA236986" transform="matrix(1,0,0,1,150,50)"><g><path fill="#fff" stroke="#ccc" id="_84AE4D0B-B15A-490A-AEB2-BA08AA236986?shapeType=BACKGROUND" paint-order="fill stroke markers" d=" M 25 0 L 25 0 L 25 0 A 25 25 0 0 1 50 25 L 50 25 L 50 25 A 25 25 0 0 1 25 50 L 25 50 L 25 50 A 25 25 0 0 1 0 25.000000000000004 L 0 25 L 0 25.000000000000004 A 25 25 0 0 1 25 0 Z" stroke-miterlimit="10" stroke-width="2" stroke-dasharray=""/></g><g transform="matrix(1,0,0,1,7,29)"><text fill="#929292" stroke="none" font-family="Open Sans" font-size="12pt" font-style="normal" font-weight="normal" text-decoration="normal" x="0" y="0" text-anchor="start" dominant-baseline="alphabetic">Start</text></g></g><g id="_D3105B4A-4DEE-4EBA-B36C-96C5D4121EB3" transform="matrix(1,0,0,1,50,229)"><g><path fill="#fff" stroke="#ccc" id="_D3105B4A-4DEE-4EBA-B36C-96C5D4121EB3?shapeType=BACKGROUND" paint-order="fill stroke markers" d=" M 0 5 L 0 5 L 0 5.000000000000001 A 5 5 0 0 1 5 0 L 245 0 L 245 0 L 245 0 A 5 5 0 0 1 250 5 L 250 85 L 250 85 L 250 85 A 5 5 0 0 1 245 90 L 5 90 L 5 90 L 5 90 A 5 5 0 0 1 0 85 Z" stroke-miterlimit="10" stroke-width="2" stroke-dasharray=""/></g><g transform="matrix(1,0,0,1,45,46)"><g id="_D3105B4A-4DEE-4EBA-B36C-96C5D4121EB3"><path fill="#F4C145" stroke="#d5d5d5" id="_D3105B4A-4DEE-4EBA-B36C-96C5D4121EB3" paint-order="fill stroke markers" d=" M 0 -25 L 0 -25 L 1.5308084989341915e-15 -25 A 25 25 0 0 1 25 0 L 25 0 L 25 0 A 25 25 0 0 1 1.5308084989341915e-15 25 L 0 25 L 1.5308084989341915e-15 25 A 25 25 0 0 1 -25 3.061616997868383e-15 L -25 0 L -25 3.061616997868383e-15 A 25 25 0 0 1 1.5308084989341915e-15 -25 Z" stroke-miterlimit="10" stroke-dasharray=""/></g><g><g transform="matrix(0.35,0,0,0.35,-11,-11)"><path fill="#fff" stroke="#fff" paint-order="fill stroke markers" d=" M 0 0 M 45.254 45.197 L 36.216 45.197 L 42.206 31.792 C 42.613 30.98 42.307 29.965 41.597 29.355 C 40.887 28.746 39.768 28.849 39.06 29.457 L 19.561 45.705 C 18.953 46.215 18.646 47.128 18.953 47.939 C 19.258 48.754 19.968 49.262 20.883 49.262 L 29.921 49.262 L 23.928 62.667 C 23.521 63.478 23.825 64.493 24.538 65.103 C 24.943 65.51 25.247 65.609 25.756 65.609 C 26.263 65.609 26.67 65.406 27.076 65.103 L 46.573 48.854 C 47.183 48.347 47.488 47.431 47.183 46.62 C 46.879 45.808 46.066 45.197 45.254 45.197 Z M 0 0 M 53.378 16.865 C 53.275 16.865 53.275 16.865 53.175 16.865 C 53.275 16.153 53.378 15.543 53.378 14.834 C 53.378 9.247 48.808 4.679 43.222 4.679 C 40.073 4.679 37.333 6.101 35.505 8.334 C 33.068 3.765 28.394 0.615 22.911 0.615 C 15.094 0.615 8.694 7.014 8.694 14.834 C 8.694 15.747 8.794 16.661 8.997 17.575 C 4.023 19.2 0.469 23.872 0.571 29.355 C 0.773 36.057 6.258 41.237 12.858 41.237 L 18.646 41.237 L 36.419 26.41 C 37.535 25.496 38.856 24.989 40.276 24.989 C 41.597 24.989 42.919 25.396 43.932 26.207 C 46.169 27.933 46.981 30.98 45.761 33.521 L 42.511 41.237 L 53.275 41.237 C 59.878 41.237 65.36 36.057 65.563 29.457 C 65.766 22.552 60.285 16.865 53.378 16.865 Z" stroke-miterlimit="10" stroke-width="2" stroke-dasharray=""/></g></g></g><g transform="matrix(1,0,0,1,80,31.5)"><text fill="#383B3D" stroke="none" font-family="Open Sans" font-size="12pt" font-style="normal" font-weight="normal" text-decoration="normal" x="50.2421875" y="12" text-anchor="middle" dominant-baseline="central">ReceiveOrder</text></g></g><g id="_D01CA8DB-9DE2-460F-AA94-AC5CA80A6002" transform="matrix(1,0,0,1,50,446)"><g><path fill="#fff" stroke="#ccc" id="_D01CA8DB-9DE2-460F-AA94-AC5CA80A6002?shapeType=BACKGROUND" paint-order="fill stroke markers" d=" M 0 5 L 0 5 L 0 5.000000000000001 A 5 5 0 0 1 5 0 L 245 0 L 245 0 L 245 0 A 5 5 0 0 1 250 5 L 250 85 L 250 85 L 250 85 A 5 5 0 0 1 245 90 L 5 90 L 5 90 L 5 90 A 5 5 0 0 1 0 85 Z" stroke-miterlimit="10" stroke-width="2" stroke-dasharray=""/></g><g transform="matrix(1,0,0,1,45,46)"><g id="_D01CA8DB-9DE2-460F-AA94-AC5CA80A6002"><path fill="#4CB140" stroke="#d5d5d5" id="_D01CA8DB-9DE2-460F-AA94-AC5CA80A6002" paint-order="fill stroke markers" d=" M 0 -25 L 0 -25 L 1.5308084989341915e-15 -25 A 25 25 0 0 1 25 0 L 25 0 L 25 0 A 25 25 0 0 1 1.5308084989341915e-15 25 L 0 25 L 1.5308084989341915e-15 25 A 25 25 0 0 1 -25 3.061616997868383e-15 L -25 0 L -25 3.061616997868383e-15 A 25 25 0 0 1 1.5308084989341915e-15 -25 Z" stroke-miterlimit="10" stroke-dasharray=""/></g><g><g transform="matrix(0.35,0,0,0.35,-11,-11)"><path fill="#fff" stroke="#fff" paint-order="fill stroke markers" d=" M 0 0 M 50.54 0.01 C 52.879999999999995 0.17 54.78 2.32 54.78 4.66 L 54.78 59.43 C 54.78 62.07 52.550000000000004 64.18 49.870000000000005 63.99 C 47.540000000000006 63.82 45.64 61.68 45.64 59.34 L 45.64 4.57 C 45.64 1.9400000000000004 47.86 -0.17999999999999972 50.54 0.010000000000000675 M 13.46 63.99 C 11.120000000000001 63.830000000000005 9.22 61.68 9.22 59.34 L 9.22 4.57 C 9.22 2.0500000000000003 11.260000000000002 0 13.790000000000001 0 C 16.32 0 18.36 2.05 18.36 4.57 L 18.36 59.43 C 18.36 62.07 16.14 64.18 13.459999999999999 63.99 Z" stroke-miterlimit="10" stroke-width="2" stroke-dasharray=""/></g></g></g><g transform="matrix(1,0,0,1,224,6)"><g><path fill="white" stroke="white" paint-order="fill stroke markers" d=" M 9 0 L 11 0 L 10.999999999999998 0 A 9 9 0 0 1 20 9 L 20 11 L 20 11 A 9 9 0 0 1 11 20 L 9 20 L 9 20 A 9 9 0 0 1 0 11.000000000000002 L 0 9 L 0 9.000000000000002 A 9 9 0 0 1 8.999999999999998 0 Z" fill-opacity="0.001" stroke-miterlimit="10" stroke-opacity="0.001" stroke-dasharray=""/></g><g transform="matrix(2,0,0,2,0,0)"><path fill="#CCC" stroke="none" paint-order="stroke fill markers" d=" M 0 0 M 9.5 2.812 C 9.5 1.949 8.801 1.25 7.938 1.25 C 7.074 1.25 6.375 1.949 6.375 2.812 C 6.375 3.523 6.849 4.123 7.498 4.312 C 7.486 4.627 7.416 4.869 7.283 5.033 C 6.982 5.408 6.321 5.471 5.619 5.535 C 5.068 5.586 4.498 5.641 4.031 5.865 L 4.031 3.053 C 4.666 2.853 5.125 2.262 5.125 1.562 C 5.125 0.699 4.426 0 3.562 0 C 2.699 0 2 0.699 2 1.562 C 2 2.262 2.459 2.853 3.094 3.053 L 3.094 6.946 C 2.459 7.147 2 7.738 2 8.437 C 2 9.301 2.699 10 3.562 10 C 4.426 10 5.125 9.301 5.125 8.437 C 5.125 7.773 4.711 7.205 4.125 6.981 C 4.186 6.879 4.277 6.789 4.416 6.719 C 4.732 6.558 5.205 6.516 5.707 6.469 C 6.531 6.393 7.465 6.304 8.016 5.621 C 8.289 5.281 8.428 4.844 8.438 4.295 C 9.054 4.084 9.5 3.5 9.5 2.812 Z M 0 0 M 3.562 1.25 C 3.734 1.25 3.875 1.391 3.875 1.562 C 3.875 1.734 3.734 1.875 3.562 1.875 C 3.391 1.875 3.25 1.734 3.25 1.562 C 3.25 1.391 3.391 1.25 3.562 1.25 Z M 0 0 M 3.562 8.75 C 3.391 8.75 3.25 8.609 3.25 8.437 C 3.25 8.266 3.391 8.125 3.562 8.125 C 3.734 8.125 3.875 8.266 3.875 8.437 C 3.875 8.609 3.734 8.75 3.562 8.75 Z M 0 0 M 7.938 2.5 C 8.109 2.5 8.25 2.641 8.25 2.812 C 8.25 2.984 8.109 3.125 7.938 3.125 C 7.766 3.125 7.625 2.984 7.625 2.812 C 7.625 2.641 7.766 2.5 7.938 2.5 Z"/></g></g><g transform="matrix(1,0,0,1,125,86)"><g><path fill="white" stroke="white" paint-order="fill stroke markers" d=" M 0 0 L 60 0 L 60 10 L 0 10 L 0 0 Z Z" fill-opacity="0.001" stroke-miterlimit="10" stroke-opacity="0.001" stroke-dasharray=""/></g><g><text fill="#4F5255" stroke="none" font-family="Helvetica" font-size="11pt" font-style="normal" font-weight="normal" text-decoration="normal" x="0" y="0" text-anchor="middle" dominant-baseline="alphabetic">allOf</text></g></g><g transform="matrix(1,0,0,1,80,31.5)"><text fill="#383B3D" stroke="none" font-family="Open Sans" font-size="12pt" font-style="normal" font-weight="normal" text-decoration="normal" x="50.67578125" y="12" text-anchor="middle" dominant-baseline="central">ProcessOrder</text></g></g><g id="_81026092-181D-42A1-8F10-1703D7BB0247" transform="matrix(1,0,0,1,152,663)"><g><path fill="#fff" stroke="#ccc" id="_81026092-181D-42A1-8F10-1703D7BB0247?shapeType=BACKGROUND" paint-order="fill stroke markers" d=" M 0 0 L 46 0 L 46 46 L 0 46 Z" stroke-miterlimit="10" stroke-width="2" stroke-dasharray=""/></g><g transform="matrix(1,0,0,1,9,29)"><text fill="#929292" stroke="none" font-family="Open Sans" font-size="12pt" font-style="normal" font-weight="normal" text-decoration="normal" x="0" y="0" text-anchor="start" dominant-baseline="alphabetic">End</text></g></g><g id="startEdge"><g><path fill="none" stroke="#757575" paint-order="fill stroke markers" d=" M 175 100 L 175 110 L 175 174.66666666666669 L 175 217" stroke-miterlimit="10" stroke-width="2" stroke-dasharray=""/></g><g transform="matrix(1,0,0,1,175,100)"/><g transform="matrix(-1,1.2246467991473532e-16,-1.2246467991473532e-16,-1,179,229)"><path fill="#757575" stroke="#757575" paint-order="fill stroke markers" d=" M 8 15 L 0 15 L 4 3 Z" stroke-miterlimit="10" stroke-width="2" stroke-dasharray=""/></g><g/><g transform="matrix(1,0,0,1,185,164.5)"/></g><g id="_FBA8B114-ECE8-4735-B82A-8BC7DA4E76D7"><g><path fill="none" stroke="#757575" paint-order="fill stroke markers" d=" M 175 319 L 175 329 L 175 392.3333333333333 L 175 434" stroke-miterlimit="10" stroke-width="2" stroke-dasharray=""/></g><g transform="matrix(1,0,0,1,175,319)"/><g transform="matrix(-1,1.2246467991473532e-16,-1.2246467991473532e-16,-1,179,446)"><path fill="#757575" stroke="#757575" paint-order="fill stroke markers" d=" M 8 15 L 0 15 L 4 3 Z" stroke-miterlimit="10" stroke-width="2" stroke-dasharray=""/></g><g/><g transform="matrix(1,0,0,1,185,382.5)"/></g><g id="_AEA3DDF0-3A9B-4744-8679-2F30F4BE9858"><g><path fill="none" stroke="#757575" paint-order="fill stroke markers" d=" M 175 536 L 175 546 L 175 609.3333333333334 L 175 651" stroke-miterlimit="10" stroke-width="2" stroke-dasharray=""/></g><g transform="matrix(1,0,0,1,175,536)"/><g transform="matrix(-1,1.2246467991473532e-16,-1.2246467991473532e-16,-1,179,663)"><path fill="#757575" stroke="#757575" paint-order="fill stroke markers" d=" M 8 15 L 0 15 L 4 3 Z" stroke-miterlimit="10" stroke-width="2" stroke-dasharray=""/></g><g/><g transform="matrix(1,0,0,1,185,599.5)"/></g></g></g></svg>